<svg width="15" height="13" viewBox="0 0 15 13" fill="none" xmlns="http://www.w3.org/2000/svg">
<path d="M12.1148 9.48993V11.538C12.1139 11.8438 11.992 12.1367 11.7758 12.3529C11.5596 12.5691 11.2667 12.691 10.9609 12.6919H3.46094V9.23032H8.65324V6.3457L12.1148 9.48993Z" fill="#00AC47"/>
<path d="M12.1158 3.46094V9.48978L8.6543 6.34555V3.46094H12.1158Z" fill="#31A950"/>
<path d="M3.46154 0V3.46154H0L3.46154 0Z" fill="#EA4435"/>
<path d="M3.46154 3.46191H0V9.80807H3.46154V3.46191Z" fill="#4285F4"/>
<path d="M12.1148 1.15385V3.46154H11.8263L8.65324 6.34615V3.46154H3.46094V0H10.9609C11.2667 0.000897974 11.5596 0.122752 11.7758 0.338946C11.992 0.555139 12.1139 0.848103 12.1148 1.15385Z" fill="#FFBA00"/>
<path d="M3.46154 9.23047V12.692H1.15385C0.848103 12.6911 0.555139 12.5693 0.338946 12.3531C0.122752 12.1369 0.000897974 11.8439 0 11.5382V9.23047H3.46154Z" fill="#0066DA"/>
<path d="M15.0005 1.88104V10.8118C15.0005 10.9234 14.9681 11.0326 14.9072 11.1261C14.8464 11.2197 14.7597 11.2935 14.6576 11.3388C14.5556 11.384 14.4426 11.3986 14.3325 11.3808C14.2223 11.3631 14.1196 11.3137 14.037 11.2387L12.1158 9.49066L8.6543 6.34643L11.8274 3.46181L12.1158 3.2022L14.037 1.45412C14.1196 1.37915 14.2223 1.32978 14.3325 1.31203C14.4426 1.29427 14.5556 1.30889 14.6576 1.3541C14.7597 1.39931 14.8464 1.47317 14.9072 1.56671C14.9681 1.66025 15.0005 1.76945 15.0005 1.88104Z" fill="#00AC47"/>
<path d="M12.1158 3.20215V9.49061L8.6543 6.34638L11.8274 3.46176L12.1158 3.20215Z" fill="#188038"/>
</svg>
