<svg width="24" height="24" viewBox="0 0 24 24" fill="none" xmlns="http://www.w3.org/2000/svg">
<path d="M7.82777 20.1224H4.34766V17.2305" stroke="#1E1E1E" stroke-linecap="round" stroke-linejoin="round"/>
<path d="M3.54076 12.0723C3.28576 12.1497 3.03766 12.2348 2.85952 12.3063C1.50586 12.8502 1 14.208 1 15.7062V21.075C1.00429 21.5569 1.18695 22.0202 1.51275 22.3754C1.83855 22.7307 2.28438 22.9526 2.76419 22.9984L7.10885 22.9941" stroke="#1E1E1E" stroke-linecap="round" stroke-linejoin="round"/>
<path d="M6.40523 4.33404C6.73818 4.31518 7.07151 4.36379 7.38521 4.47693C7.69892 4.59007 7.98653 4.76542 8.2308 4.99246C8.47506 5.2195 8.67095 5.49354 8.80669 5.79815C8.94244 6.10275 9.01525 6.43164 9.02076 6.76508C9.07723 7.59462 9.02545 8.42798 8.86673 9.24414C8.6982 10.0822 7.99865 11.6016 6.40523 11.6016C4.8118 11.6016 4.11225 10.0822 3.94372 9.24414C3.785 8.42798 3.73323 7.59462 3.78969 6.76508C3.7952 6.43164 3.86801 6.10275 4.00376 5.79814C4.13951 5.49354 4.33539 5.2195 4.57966 4.99246C4.82393 4.76542 5.11154 4.59007 5.42524 4.47693C5.73895 4.36379 6.07228 4.31518 6.40523 4.33404Z" stroke="#1E1E1E" stroke-linecap="round" stroke-linejoin="round"/>
<path d="M7.85675 20.4559L6.26758 17.6602" stroke="#1E1E1E" stroke-linecap="round" stroke-linejoin="round"/>
<path d="M13.6721 18.6585L14.3746 16.3166L9.13031 16.3027L7.10547 22.998H11.4258" stroke="#1E1E1E" stroke-linecap="round" stroke-linejoin="round"/>
<path d="M12.2153 22.9987H10.8613V22.0242C10.8613 21.6593 11.0063 21.3094 11.2643 21.0514C11.5223 20.7934 11.8722 20.6484 12.2371 20.6484H14.1517V21.0623C14.1517 21.3166 14.1016 21.5684 14.0043 21.8033C13.907 22.0383 13.7644 22.2517 13.5846 22.4316C13.4047 22.6114 13.1913 22.754 12.9563 22.8513C12.7214 22.9486 12.4696 22.9987 12.2153 22.9987Z" stroke="#1E1E1E" stroke-linecap="round" stroke-linejoin="round"/>
<path d="M10.0858 11.9994H12.4582V14.3906L16.5432 11.9994H21.0864C22.1429 11.9994 22.9994 11.6212 22.9994 10.5647V2.91294C22.9994 2.40559 22.7978 1.91903 22.4391 1.56029C22.0803 1.20154 21.5938 1 21.0864 1H10.5653C10.0579 1 9.57138 1.20154 9.21263 1.56029C8.85389 1.91903 8.65234 2.40559 8.65234 2.91294" stroke="#1E1E1E" stroke-linecap="round" stroke-linejoin="round"/>
<path d="M15.8082 3.01022C16.0106 2.99876 16.2131 3.0283 16.4038 3.09707C16.5945 3.16584 16.7693 3.27241 16.9177 3.4104C17.0662 3.54838 17.1852 3.71494 17.2677 3.90007C17.3503 4.0852 17.3945 4.28509 17.3979 4.48775C17.4322 4.99192 17.4007 5.49842 17.3042 5.99447C17.2018 6.50382 16.7766 7.42726 15.8082 7.42726C14.8397 7.42726 14.4146 6.50382 14.3121 5.99447C14.2157 5.49842 14.1842 4.99192 14.2185 4.48775C14.2219 4.28509 14.2661 4.0852 14.3486 3.90006C14.4311 3.71493 14.5502 3.54837 14.6987 3.41039C14.8471 3.2724 15.0219 3.16583 15.2126 3.09706C15.4032 3.0283 15.6058 2.99876 15.8082 3.01022Z" stroke="#1E1E1E" stroke-linecap="round" stroke-linejoin="round"/>
<path d="M13.9184 8.39258C13.621 8.60109 13.3726 8.87183 13.1904 9.186C13.0082 9.50016 12.8966 9.85023 12.8633 10.2119H18.6021C18.5688 9.85022 18.4572 9.50016 18.2749 9.18599C18.0927 8.87182 17.8443 8.60108 17.547 8.39258" stroke="#1E1E1E" stroke-linecap="round" stroke-linejoin="round"/>
</svg>
