<svg width="13" height="16" viewBox="0 0 13 16" fill="none" xmlns="http://www.w3.org/2000/svg">
<path d="M12.7466 6.35417H12.4924V3.30417C12.4924 3.30417 12.4924 3.30417 12.4924 3.28892C12.4912 3.26642 12.4869 3.2442 12.4797 3.22283V3.19996C12.4681 3.17276 12.4517 3.14782 12.4314 3.12625L9.38145 0.07625C9.35988 0.055984 9.33493 0.0396412 9.30774 0.0279583H9.28486C9.25954 0.0140863 9.23203 0.00463157 9.20353 0H1.56328C1.49587 0 1.43122 0.0267782 1.38356 0.0744437C1.33589 0.122109 1.30911 0.186757 1.30911 0.254167V6.35417H1.05495C0.987539 6.35417 0.92289 6.38094 0.875225 6.42861C0.827559 6.47628 0.800781 6.54092 0.800781 6.60833V11.6917C0.800781 11.7591 0.827559 11.8237 0.875225 11.8714C0.92289 11.9191 0.987539 11.9458 1.05495 11.9458H1.30911V14.9958C1.30911 15.0632 1.33589 15.1279 1.38356 15.1756C1.43122 15.2232 1.49587 15.25 1.56328 15.25H12.2383C12.3057 15.25 12.3703 15.2232 12.418 15.1756C12.4657 15.1279 12.4924 15.0632 12.4924 14.9958V11.9458H12.7466C12.814 11.9458 12.8787 11.9191 12.9263 11.8714C12.974 11.8237 13.0008 11.7591 13.0008 11.6917V6.60833C13.0008 6.54092 12.974 6.47628 12.9263 6.42861C12.8787 6.38094 12.814 6.35417 12.7466 6.35417ZM9.44245 0.866708L11.6257 3.05H9.44245V0.866708ZM11.9841 14.7417H1.81745V11.9458H11.9841V14.7417ZM4.12274 10.8834V7.49029H4.92845C5.03866 7.48541 5.14865 7.50395 5.25117 7.5447C5.35369 7.58544 5.44641 7.64746 5.5232 7.72667C5.6633 7.88444 5.73706 8.09023 5.72907 8.30108V8.79417C5.73083 8.90073 5.71103 9.00655 5.67084 9.10526C5.63066 9.20398 5.57093 9.29355 5.49524 9.36858C5.42253 9.44558 5.33459 9.50659 5.237 9.54773C5.13942 9.58886 5.03433 9.60922 4.92845 9.6075H4.63616V10.8783L4.12274 10.8834ZM6.14082 10.8834V7.48775H6.94399C7.0503 7.48567 7.15587 7.50586 7.25392 7.547C7.35197 7.58815 7.44033 7.64935 7.51332 7.72667C7.58894 7.80123 7.64864 7.89035 7.68884 7.98864C7.72903 8.08694 7.74887 8.19236 7.74716 8.29854V10.0777C7.74873 10.1845 7.7286 10.2904 7.68796 10.3892C7.64733 10.4879 7.58705 10.5774 7.51078 10.6521C7.43779 10.7294 7.34943 10.7906 7.25138 10.8318C7.15333 10.8729 7.04776 10.8931 6.94145 10.891L6.14082 10.8834ZM9.40178 8.92887V9.43721H8.71045V10.8783H8.20211V7.48775H9.65849V7.99608H8.71045V8.92125L9.40178 8.92887ZM11.9841 6.35417H1.81745V0.508333H8.93411V3.30417C8.93411 3.37158 8.96089 3.43622 9.00856 3.48389C9.05622 3.53155 9.12087 3.55833 9.18828 3.55833H11.9841V6.35417Z" fill="#EB4335"/>
</svg>
