<svg width="12" height="14" viewBox="0 0 12 14" fill="none" xmlns="http://www.w3.org/2000/svg">
<path d="M10 4.9H8.66667C8.26667 4.9 8 5.18 8 5.6C8 6.02 8.26667 6.3 8.66667 6.3H10C10.4 6.3 10.6667 6.58 10.6667 7V11.9C10.6667 12.32 10.4 12.6 10 12.6H2C1.6 12.6 1.33333 12.32 1.33333 11.9V7C1.33333 6.58 1.6 6.3 2 6.3H3.33333C3.73333 6.3 4 6.02 4 5.6C4 5.18 3.73333 4.9 3.33333 4.9H2C0.866667 4.9 0 5.81 0 7V11.9C0 13.09 0.866667 14 2 14H10C11.1333 14 12 13.09 12 11.9V7C12 5.81 11.1333 4.9 10 4.9ZM4.46667 3.29L5.33333 2.38V10.5C5.33333 10.92 5.6 11.2 6 11.2C6.4 11.2 6.66667 10.92 6.66667 10.5V2.38L7.53333 3.29C7.66667 3.43 7.8 3.5 8 3.5C8.2 3.5 8.33333 3.43 8.46667 3.29C8.73333 3.01 8.73333 2.59 8.46667 2.31L6.46667 0.21C6.2 -0.07 5.8 -0.07 5.53333 0.21L3.53333 2.31C3.26667 2.59 3.26667 3.01 3.53333 3.29C3.8 3.57 4.2 3.57 4.46667 3.29Z" fill="#2C2C2C"/>
</svg>
