<svg width="18" height="20" viewBox="0 0 18 20" fill="none" xmlns="http://www.w3.org/2000/svg">
<path d="M15 7H13C12.4 7 12 7.4 12 8C12 8.6 12.4 9 13 9H15C15.6 9 16 9.4 16 10V17C16 17.6 15.6 18 15 18H3C2.4 18 2 17.6 2 17V10C2 9.4 2.4 9 3 9H5C5.6 9 6 8.6 6 8C6 7.4 5.6 7 5 7H3C1.3 7 0 8.3 0 10V17C0 18.7 1.3 20 3 20H15C16.7 20 18 18.7 18 17V10C18 8.3 16.7 7 15 7ZM6.7 4.7L8 3.4V15C8 15.6 8.4 16 9 16C9.6 16 10 15.6 10 15V3.4L11.3 4.7C11.5 4.9 11.7 5 12 5C12.3 5 12.5 4.9 12.7 4.7C13.1 4.3 13.1 3.7 12.7 3.3L9.7 0.3C9.3 -0.1 8.7 -0.1 8.3 0.3L5.3 3.3C4.9 3.7 4.9 4.3 5.3 4.7C5.7 5.1 6.3 5.1 6.7 4.7Z" fill="#3E9FFB"/>
</svg>
